<svg width="211" height="54" viewBox="0 0 211 54" fill="none" xmlns="http://www.w3.org/2000/svg">
    <path d="M2.99997 8.31339C2.99997 5.37958 5.37953 3.00002 8.31334 3.00002C11.2498 3.00002 13.6293 5.37958 13.6293 8.31339C13.6293 18.9405 8.31334 18.9405 8.31334 29.5692C8.31334 41.3069 17.8289 50.825 29.5691 50.825C41.3068 50.825 50.8249 41.3069 50.8249 29.5692C50.8249 18.9396 45.5115 18.9396 45.5115 8.31339C45.5115 5.37958 47.8911 3.00002 50.8249 3.00002C53.7587 3.00002 56.1383 5.37958 56.1383 8.31339"
          stroke="#44403C" stroke-width="4.92526" stroke-miterlimit="10"/>
    <path d="M13.6293 8.31348H45.5121" stroke="#44403C" stroke-width="4.92526" stroke-miterlimit="10"/>
    <path d="M11.1619 40.1963H47.9766" stroke="#44403C" stroke-width="4.92526" stroke-miterlimit="10"/>
    <path d="M20.0045 8.31344V40.1963" stroke="#44403C" stroke-width="4.92526" stroke-miterlimit="10"/>
    <path d="M29.5693 8.31344V40.1963" stroke="#44403C" stroke-width="4.92526" stroke-miterlimit="10"/>
    <path d="M39.1341 8.31344V40.1963" stroke="#44403C" stroke-width="4.92526" stroke-miterlimit="10"/>
    <path d="M70.6202 46.4125V8.48047H75.758V46.4125H70.6202ZM95.1066 46.4125V8.48047H100.244V46.4125H95.1066ZM74.1182 29.1408V24.4403H96.3637V29.1408H74.1182ZM106.424 46.4125L121.946 8.48047H125.663L141.131 46.4125H135.556L122.821 14.3288H124.734L111.889 46.4125H106.424ZM113.802 37.8313V33.3494H133.752V37.8313H113.802ZM150.285 29.906V25.5881H160.56C162.783 25.5881 164.495 25.0233 165.698 23.8938C166.9 22.7642 167.502 21.2338 167.502 19.3026C167.502 17.4807 166.9 15.9685 165.698 14.766C164.532 13.5636 162.837 12.9623 160.615 12.9623H150.285V8.48047H160.779C163.184 8.48047 165.279 8.95417 167.064 9.90155C168.85 10.8125 170.216 12.0696 171.164 13.6729C172.147 15.2762 172.639 17.1163 172.639 19.1933C172.639 21.3431 172.147 23.2197 171.164 24.8229C170.216 26.4262 168.85 27.6833 167.064 28.5943C165.279 29.4688 163.184 29.906 160.779 29.906H150.285ZM146.841 46.4125V8.48047H151.979V46.4125H146.841ZM168.704 46.4125L154.93 29.4141L159.795 27.7198L175.208 46.4125H168.704ZM183.965 31.6551V27.1732H194.295C195.716 27.1732 196.973 26.8817 198.066 26.2987C199.196 25.7157 200.07 24.8958 200.69 23.8391C201.346 22.7824 201.674 21.5253 201.674 20.0678C201.674 18.6102 201.346 17.3531 200.69 16.2964C200.07 15.2397 199.196 14.4199 198.066 13.8369C196.973 13.2539 195.716 12.9623 194.295 12.9623H183.965V8.48047H194.623C196.955 8.48047 199.032 8.95417 200.854 9.90155C202.712 10.8489 204.17 12.1972 205.226 13.9462C206.32 15.6588 206.866 17.6993 206.866 20.0678C206.866 22.3998 206.32 24.4403 205.226 26.1894C204.17 27.9019 202.712 29.2502 200.854 30.234C199.032 31.1814 196.955 31.6551 194.623 31.6551H183.965ZM180.521 46.4125V8.48047H185.659V46.4125H180.521Z"
          fill="#44403C"/>
</svg>
